<svg width="25" height="25" viewBox="0 0 25 25" fill="none" xmlns="http://www.w3.org/2000/svg">
<path d="M22.9166 8.85417H20.3489L16.4948 3.06771C16.3414 2.83786 16.1031 2.67833 15.8321 2.62421C15.5612 2.5701 15.2798 2.62584 15.05 2.77917C14.8201 2.9325 14.6606 3.17085 14.6065 3.44181C14.5523 3.71276 14.6081 3.99411 14.7614 4.22396L17.8458 8.85417H7.15413L10.2416 4.22396C10.395 3.99411 10.4507 3.71276 10.3966 3.44181C10.3425 3.17085 10.1829 2.9325 9.95308 2.77917C9.72323 2.62584 9.44188 2.5701 9.17093 2.62421C8.89998 2.67833 8.66162 2.83786 8.50829 3.06771L4.651 8.85417H2.08329C1.80703 8.85417 1.54207 8.96391 1.34672 9.15927C1.15137 9.35462 1.04163 9.61957 1.04163 9.89583C1.04163 10.1721 1.15137 10.4371 1.34672 10.6324C1.54207 10.8278 1.80703 10.9375 2.08329 10.9375H3.12496V19.2708C3.12496 20.0996 3.4542 20.8945 4.04025 21.4805C4.6263 22.0666 5.42116 22.3958 6.24996 22.3958H18.75C19.5788 22.3958 20.3736 22.0666 20.9597 21.4805C21.5457 20.8945 21.875 20.0996 21.875 19.2708V10.9375H22.9166C23.1929 10.9375 23.4578 10.8278 23.6532 10.6324C23.8485 10.4371 23.9583 10.1721 23.9583 9.89583C23.9583 9.61957 23.8485 9.35462 23.6532 9.15927C23.4578 8.96391 23.1929 8.85417 22.9166 8.85417ZM19.7916 19.2708C19.7916 19.5471 19.6819 19.8121 19.4865 20.0074C19.2912 20.2028 19.0262 20.3125 18.75 20.3125H6.24996C5.97369 20.3125 5.70874 20.2028 5.51339 20.0074C5.31804 19.8121 5.20829 19.5471 5.20829 19.2708V10.9375H19.7916V19.2708ZM7.29163 17.7083V13.5417C7.29163 13.2654 7.40137 13.0004 7.59672 12.8051C7.79207 12.6097 8.05702 12.5 8.33329 12.5C8.60956 12.5 8.87451 12.6097 9.06986 12.8051C9.26521 13.0004 9.37496 13.2654 9.37496 13.5417V17.7083C9.37496 17.9846 9.26521 18.2496 9.06986 18.4449C8.87451 18.6403 8.60956 18.75 8.33329 18.75C8.05702 18.75 7.79207 18.6403 7.59672 18.4449C7.40137 18.2496 7.29163 17.9846 7.29163 17.7083ZM11.4583 17.7083V13.5417C11.4583 13.2654 11.568 13.0004 11.7634 12.8051C11.9587 12.6097 12.2237 12.5 12.5 12.5C12.7762 12.5 13.0412 12.6097 13.2365 12.8051C13.4319 13.0004 13.5416 13.2654 13.5416 13.5417V17.7083C13.5416 17.9846 13.4319 18.2496 13.2365 18.4449C13.0412 18.6403 12.7762 18.75 12.5 18.75C12.2237 18.75 11.9587 18.6403 11.7634 18.4449C11.568 18.2496 11.4583 17.9846 11.4583 17.7083ZM15.625 17.7083V13.5417C15.625 13.2654 15.7347 13.0004 15.9301 12.8051C16.1254 12.6097 16.3904 12.5 16.6666 12.5C16.9429 12.5 17.2078 12.6097 17.4032 12.8051C17.5985 13.0004 17.7083 13.2654 17.7083 13.5417V17.7083C17.7083 17.9846 17.5985 18.2496 17.4032 18.4449C17.2078 18.6403 16.9429 18.75 16.6666 18.75C16.3904 18.75 16.1254 18.6403 15.9301 18.4449C15.7347 18.2496 15.625 17.9846 15.625 17.7083Z" fill="white"/>
</svg>
