<svg width="38" height="38" viewBox="0 0 38 38" fill="none" xmlns="http://www.w3.org/2000/svg">
<path d="M19.0001 37.3946C22.6382 37.3946 26.1947 36.3158 29.2196 34.2946C32.2446 32.2734 34.6023 29.4005 35.9946 26.0393C37.3868 22.6781 37.7511 18.9796 37.0413 15.4114C36.3316 11.8432 34.5796 8.56556 32.0071 5.99302C29.4346 3.42049 26.1569 1.66856 22.5887 0.958803C19.0205 0.249041 15.322 0.613317 11.9608 2.00556C8.59961 3.39781 5.72676 5.7555 3.70553 8.78048C1.6843 11.8055 0.605469 15.3619 0.605469 19C0.611222 23.8768 2.55107 28.5522 5.99949 32.0006C9.44791 35.449 14.1233 37.3889 19.0001 37.3946V37.3946ZM19.0001 3.94984C21.9768 3.94984 24.8866 4.83251 27.3615 6.48625C29.8365 8.13998 31.7655 10.4905 32.9047 13.2406C34.0438 15.9906 34.3418 19.0167 33.7611 21.9361C33.1804 24.8556 31.747 27.5373 29.6422 29.6421C27.5374 31.7469 24.8557 33.1803 21.9363 33.761C19.0168 34.3417 15.9907 34.0437 13.2407 32.9045C10.4906 31.7654 8.14009 29.8364 6.48636 27.3614C4.83263 24.8864 3.94995 21.9766 3.94995 19C3.95438 15.0098 5.54144 11.1843 8.36293 8.36282C11.1844 5.54132 15.0099 3.95426 19.0001 3.94984ZM12.8011 22.8344L16.6356 19L12.8011 15.1656C12.4965 14.8502 12.328 14.4278 12.3318 13.9893C12.3356 13.5508 12.5114 13.1314 12.8215 12.8214C13.1315 12.5113 13.551 12.3355 13.9894 12.3317C14.4279 12.3278 14.8503 12.4964 15.1657 12.801L19.0001 16.6355L22.8346 12.801C23.15 12.4964 23.5724 12.3278 24.0108 12.3317C24.4493 12.3355 24.8687 12.5113 25.1787 12.8214C25.4888 13.1314 25.6647 13.5508 25.6685 13.9893C25.6723 14.4278 25.5037 14.8502 25.1991 15.1656L21.3647 19L25.1991 22.8344C25.3588 22.9887 25.4862 23.1732 25.5739 23.3773C25.6615 23.5813 25.7076 23.8007 25.7096 24.0227C25.7115 24.2448 25.6692 24.465 25.5851 24.6705C25.501 24.876 25.3769 25.0627 25.2198 25.2197C25.0628 25.3767 24.8761 25.5009 24.6706 25.585C24.4651 25.6691 24.2449 25.7114 24.0229 25.7095C23.8008 25.7075 23.5814 25.6614 23.3774 25.5737C23.1733 25.4861 22.9888 25.3587 22.8346 25.199L19.0001 21.3645L15.1657 25.199C14.8503 25.5036 14.4279 25.6722 13.9894 25.6684C13.551 25.6645 13.1315 25.4887 12.8215 25.1786C12.5114 24.8686 12.3356 24.4492 12.3318 24.0107C12.328 23.5722 12.4965 23.1498 12.8011 22.8344V22.8344Z" fill="#292929"/>
</svg>
