<svg width="32" height="32" viewBox="0 0 32 32" fill="none" xmlns="http://www.w3.org/2000/svg">
<path d="M19.6723 9.22034H12.3277C11.9196 9.22033 11.5156 9.3007 11.1386 9.45686C10.7616 9.61301 10.419 9.8419 10.1304 10.1304C9.8419 10.419 9.61301 10.7616 9.45686 11.1386C9.3007 11.5156 9.22033 11.9196 9.22034 12.3277V19.6723C9.22034 20.4965 9.54772 21.2868 10.1305 21.8696C10.419 22.1581 10.7616 22.387 11.1386 22.5432C11.5156 22.6993 11.9196 22.7797 12.3277 22.7797H19.6723C20.4965 22.7797 21.2868 22.4523 21.8695 21.8696C22.4523 21.2868 22.7796 20.4965 22.7796 19.6723V12.3277C22.7797 11.9196 22.6993 11.5156 22.5431 11.1386C22.387 10.7616 22.1581 10.419 21.8696 10.1305C21.581 9.84192 21.2385 9.61303 20.8615 9.45687C20.4845 9.30071 20.0804 9.22034 19.6723 9.22034ZM16 20.2745C15.1546 20.2745 14.3282 20.0238 13.6253 19.5541C12.9223 19.0844 12.3745 18.4168 12.051 17.6358C11.7274 16.8547 11.6428 15.9953 11.8077 15.1661C11.9726 14.337 12.3798 13.5753 12.9775 12.9775C13.5753 12.3798 14.337 11.9726 15.1661 11.8077C15.9953 11.6428 16.8547 11.7274 17.6358 12.051C18.4168 12.3745 19.0844 12.9223 19.5541 13.6253C20.0238 14.3282 20.2745 15.1546 20.2745 16C20.2745 16.5614 20.1639 17.1172 19.9491 17.6358C19.7343 18.1544 19.4194 18.6256 19.0225 19.0225C18.6256 19.4194 18.1544 19.7343 17.6358 19.9491C17.1172 20.1639 16.5614 20.2745 16 20.2745ZM20.4527 12.5988C20.2515 12.5988 20.0549 12.5392 19.8877 12.4274C19.7204 12.3157 19.5901 12.1569 19.5131 11.971C19.4361 11.7852 19.416 11.5808 19.4552 11.3835C19.4944 11.1862 19.5913 11.005 19.7335 10.8628C19.8757 10.7205 20.0569 10.6237 20.2542 10.5844C20.4514 10.5452 20.6559 10.5653 20.8417 10.6423C21.0276 10.7193 21.1864 10.8496 21.2981 11.0169C21.4099 11.1841 21.4695 11.3807 21.4695 11.5818C21.4695 11.8515 21.3624 12.1102 21.1717 12.3009C20.981 12.4916 20.7223 12.5988 20.4527 12.5988Z" fill="#F28F50"/>
<path d="M16 13.2216C15.4505 13.2216 14.9133 13.3845 14.4564 13.6898C13.9995 13.9951 13.6433 14.429 13.4331 14.9367C13.2228 15.4444 13.1677 16.0031 13.2749 16.542C13.3822 17.081 13.6468 17.5761 14.0353 17.9646C14.4239 18.3532 14.919 18.6178 15.458 18.725C15.9969 18.8323 16.5556 18.7772 17.0633 18.5669C17.571 18.3566 18.0049 18.0005 18.3102 17.5436C18.6155 17.0867 18.7784 16.5495 18.7784 16C18.7784 15.2631 18.4857 14.5564 17.9646 14.0353C17.4436 13.5143 16.7369 13.2216 16 13.2216Z" fill="#F28F50"/>
<path d="M16 0C7.16344 0 0 7.16344 0 16C0 24.8366 7.16344 32 16 32C24.8366 32 32 24.8366 32 16C32 7.16344 24.8366 0 16 0ZM24.3333 19.5312C24.3333 20.8048 23.8273 22.0262 22.9268 22.9268C22.0262 23.8273 20.8048 24.3333 19.5312 24.3333H12.4688C11.1952 24.3333 9.97377 23.8273 9.07321 22.9268C8.17265 22.0262 7.66669 20.8048 7.66663 19.5312V12.4688C7.66667 11.1952 8.17263 9.97376 9.07319 9.07321C9.97376 8.17266 11.1952 7.66672 12.4688 7.66669H19.5312C20.8048 7.66674 22.0262 8.17268 22.9268 9.07323C23.8273 9.97378 24.3333 11.1952 24.3333 12.4688V19.5312Z" fill="#F28F50"/>
</svg>
