<svg width="361" height="168" viewBox="0 0 361 168" fill="none" xmlns="http://www.w3.org/2000/svg">
<path fill-rule="evenodd" clip-rule="evenodd" d="M299.594 113.275C299.594 113.275 65.4735 113.753 61.5515 113.753C57.6272 113.753 55.8293 109.626 55.6674 109.3L49.7832 99.1442C49.7832 99.1442 47.8234 92.732 37.4821 92.5537C27.1432 92.3755 17.6938 98.0747 13.5934 97.7205C9.49302 97.364 2.18418 94.1556 2.00345 85.2479C1.82742 76.3403 8.42275 71.354 13.5934 70.6411C18.764 69.9281 29.2814 75.8079 38.1956 75.8079C47.1099 75.8079 49.7832 69.9281 49.7832 69.9281C49.7832 69.9281 51.4637 66.2224 54.4187 60.4857C57.3737 54.7489 62.2627 54.9647 62.2627 54.9647C62.2627 54.9647 281.052 54.6645 298.88 54.4862C298.88 54.4862 303.626 54.4651 306.724 60.0096C309.825 65.5516 311.36 69.452 311.36 69.452C311.36 69.452 314.035 75.3294 322.95 75.3294C331.864 75.3294 342.381 69.452 347.552 70.1626C352.722 70.8756 359.318 75.8642 359.139 84.7718C358.961 93.6795 351.652 96.8856 347.552 97.2421C343.451 97.5986 334.002 91.897 323.661 92.0753C313.322 92.2535 311.36 98.6681 311.36 98.6681L305.478 108.821C305.262 109.248 303.516 113.275 299.594 113.275Z" fill="#F28F50" stroke="#F28F50" stroke-width="2.36" stroke-miterlimit="22.9256"/>
<path fill-rule="evenodd" clip-rule="evenodd" d="M72.9954 35.3388C76.6874 32.3696 87.6084 25.6806 90.4273 24.0506C90.4273 24.0506 92.2815 29.5974 85.8645 33.9597C79.4452 38.3197 72.9954 35.3388 72.9954 35.3388Z" fill="#F28F50" stroke="#F28F50" stroke-width="2.36" stroke-miterlimit="22.9256"/>
<path fill-rule="evenodd" clip-rule="evenodd" d="M90.4271 24.0509C94.4852 21.607 106.209 16.4519 109.225 15.2183C109.225 15.2183 110.312 20.9644 103.362 24.4191C96.4146 27.8762 90.4271 24.0509 90.4271 24.0509Z" fill="#F28F50" stroke="#F28F50" stroke-width="2.36" stroke-miterlimit="22.9256"/>
<path fill-rule="evenodd" clip-rule="evenodd" d="M109.226 15.218C113.533 13.2479 125.766 9.44841 128.902 8.56421C128.902 8.56421 129.331 14.3971 122.036 17.045C114.742 19.6929 109.226 15.218 109.226 15.218Z" fill="#F28F50" stroke="#F28F50" stroke-width="2.36" stroke-miterlimit="22.9256"/>
<path fill-rule="evenodd" clip-rule="evenodd" d="M128.901 8.56384C133.417 7.13552 146.023 4.86053 149.244 4.36566C149.244 4.36566 148.955 10.2079 141.39 11.9435C133.828 13.6791 128.901 8.56384 128.901 8.56384Z" fill="#F28F50" stroke="#F28F50" stroke-width="2.36" stroke-miterlimit="22.9256"/>
<path fill-rule="evenodd" clip-rule="evenodd" d="M148.892 4.47509C153.54 3.55571 166.322 2.69261 169.575 2.55658C169.575 2.55658 168.641 8.33085 160.931 9.2174C153.223 10.1063 148.892 4.47509 148.892 4.47509Z" fill="#F28F50" stroke="#F28F50" stroke-width="2.36" stroke-miterlimit="22.9256"/>
<path fill-rule="evenodd" clip-rule="evenodd" d="M169.576 2.55524C174.278 1.95249 187.086 1.95483 190.341 2.04161C190.341 2.04161 189.02 7.73849 181.267 8.10202C173.515 8.46555 169.576 2.55524 169.576 2.55524Z" fill="#F28F50" stroke="#F28F50" stroke-width="2.36" stroke-miterlimit="22.9256"/>
<path fill-rule="evenodd" clip-rule="evenodd" d="M190.341 2.03945C195.08 1.9902 207.801 3.48889 211.026 3.95327C211.026 3.95327 209.045 9.45781 201.304 8.91369C193.561 8.37191 190.341 2.03945 190.341 2.03945Z" fill="#F28F50" stroke="#F28F50" stroke-width="2.36" stroke-miterlimit="22.9256"/>
<path fill-rule="evenodd" clip-rule="evenodd" d="M211.026 3.95264C215.743 4.39591 228.239 7.20799 231.398 8.00307C231.398 8.00307 228.856 13.2731 221.212 11.9268C213.57 10.583 211.026 3.95264 211.026 3.95264Z" fill="#F28F50" stroke="#F28F50" stroke-width="2.36" stroke-miterlimit="22.9256"/>
<path fill-rule="evenodd" clip-rule="evenodd" d="M231.398 8.00378C236.043 8.94193 248.173 13.0557 251.229 14.1791C251.229 14.1791 248.145 19.1512 240.686 17.0076C233.227 14.8663 231.398 8.00378 231.398 8.00378Z" fill="#F28F50" stroke="#F28F50" stroke-width="2.36" stroke-miterlimit="22.9256"/>
<path fill-rule="evenodd" clip-rule="evenodd" d="M251.228 14.178C255.701 15.7376 267.16 21.4603 270.035 22.9895C270.035 22.9895 266.303 27.4973 259.206 24.3615C252.106 21.2258 251.228 14.178 251.228 14.178Z" fill="#F28F50" stroke="#F28F50" stroke-width="2.36" stroke-miterlimit="22.9256"/>
<path fill-rule="evenodd" clip-rule="evenodd" d="M270.036 22.9905C274.31 25.0357 285.062 31.992 287.75 33.8307C287.75 33.8307 283.541 37.8952 276.836 33.9926C270.128 30.0923 270.036 22.9905 270.036 22.9905Z" fill="#F28F50" stroke="#F28F50" stroke-width="2.36" stroke-miterlimit="22.9256"/>
<path fill-rule="evenodd" clip-rule="evenodd" d="M73.0006 133.313C76.7044 136.266 87.6559 142.906 90.4841 144.522C90.4841 144.522 92.3125 138.966 85.8745 134.634C79.4364 130.302 73.0006 133.313 73.0006 133.313Z" fill="#F28F50" stroke="#F28F50" stroke-width="2.36" stroke-miterlimit="22.9256"/>
<path fill-rule="evenodd" clip-rule="evenodd" d="M90.4844 144.522C94.5519 146.949 106.301 152.048 109.322 153.27C109.322 153.27 110.383 147.517 103.417 144.095C96.4531 140.67 90.4844 144.522 90.4844 144.522Z" fill="#F28F50" stroke="#F28F50" stroke-width="2.36" stroke-miterlimit="22.9256"/>
<path fill-rule="evenodd" clip-rule="evenodd" d="M109.32 153.27C113.636 155.219 125.886 158.962 129.026 159.832C129.026 159.832 129.428 153.997 122.121 151.382C114.815 148.767 109.32 153.27 109.32 153.27Z" fill="#F28F50" stroke="#F28F50" stroke-width="2.36" stroke-miterlimit="22.9256"/>
<path fill-rule="evenodd" clip-rule="evenodd" d="M129.027 159.832C133.549 161.241 146.165 163.455 149.388 163.936C149.388 163.936 149.073 158.096 141.501 156.393C133.93 154.693 129.027 159.832 129.027 159.832Z" fill="#F28F50" stroke="#F28F50" stroke-width="2.36" stroke-miterlimit="22.9256"/>
<path fill-rule="evenodd" clip-rule="evenodd" d="M149.039 163.831C153.691 164.729 166.476 165.534 169.731 165.656C169.731 165.656 168.771 159.886 161.056 159.032C153.342 158.179 149.039 163.831 149.039 163.831Z" fill="#F28F50" stroke="#F28F50" stroke-width="2.36" stroke-miterlimit="22.9256"/>
<path fill-rule="evenodd" clip-rule="evenodd" d="M169.73 165.655C174.432 166.235 187.242 166.174 190.498 166.073C190.498 166.073 189.148 160.383 181.393 160.052C173.641 159.726 169.73 165.655 169.73 165.655Z" fill="#F28F50" stroke="#F28F50" stroke-width="2.36" stroke-miterlimit="22.9256"/>
<path fill-rule="evenodd" clip-rule="evenodd" d="M190.498 166.073C195.237 166.101 207.951 164.546 211.171 164.066C211.171 164.066 209.167 158.57 201.428 159.15C193.688 159.729 190.498 166.073 190.498 166.073Z" fill="#F28F50" stroke="#F28F50" stroke-width="2.36" stroke-miterlimit="22.9256"/>
<path fill-rule="evenodd" clip-rule="evenodd" d="M211.171 164.066C215.889 163.603 228.371 160.733 231.525 159.921C231.525 159.921 228.96 154.665 221.322 156.044C213.685 157.424 211.171 164.066 211.171 164.066Z" fill="#F28F50" stroke="#F28F50" stroke-width="2.36" stroke-miterlimit="22.9256"/>
<path fill-rule="evenodd" clip-rule="evenodd" d="M231.524 159.921C236.165 158.964 248.276 154.794 251.327 153.656C251.327 153.656 248.222 148.698 240.772 150.874C233.322 153.051 231.524 159.921 231.524 159.921Z" fill="#F28F50" stroke="#F28F50" stroke-width="2.36" stroke-miterlimit="22.9256"/>
<path fill-rule="evenodd" clip-rule="evenodd" d="M251.329 153.657C255.795 152.076 267.228 146.302 270.096 144.759C270.096 144.759 266.346 140.27 259.26 143.438C252.176 146.604 251.329 153.657 251.329 153.657Z" fill="#F28F50" stroke="#F28F50" stroke-width="2.36" stroke-miterlimit="22.9256"/>
<path fill-rule="evenodd" clip-rule="evenodd" d="M270.093 144.759C274.358 142.695 285.079 135.689 287.758 133.839C287.758 133.839 283.53 129.79 276.841 133.724C270.154 137.657 270.093 144.759 270.093 144.759Z" fill="#F28F50" stroke="#F28F50" stroke-width="2.36" stroke-miterlimit="22.9256"/>
<path d="M259.924 112.477L277.133 55.9069H281.606L298.879 112.477H293.274L288.303 95.4965H270.458L265.465 112.477H259.924ZM279.337 64.6574C277.436 71.7029 275.621 78.1127 273.903 83.8753L272.272 89.2602H286.434L284.803 83.8589C283.064 77.9978 281.292 71.602 279.466 64.6574H279.337Z" fill="#FBFAFF"/>
<path d="M224.956 112.477V55.9069H230.14V83.8589H230.206L249.652 55.9069H254.836L235.088 84.0629L256.003 112.477H250.818L230.206 84.7829H230.14V112.477H224.956Z" fill="#FBFAFF"/>
<path d="M199.2 62.1432C198.271 69.5803 197.311 76.0043 196.306 81.4197C195.301 86.8492 194.327 91.4414 193.367 95.2221C192.405 98.9911 191.433 102.038 190.441 104.378C189.445 106.717 188.399 108.534 187.286 109.806C186.183 111.091 185.017 111.959 183.796 112.404C182.564 112.852 181.268 113.084 179.895 113.084C179.538 113.084 179.193 113.07 178.858 113.026C178.513 112.983 178.231 112.911 178.006 112.824V106.109C178.447 106.196 178.881 106.241 179.301 106.241C179.841 106.241 180.404 106.182 180.975 106.067C181.548 105.952 182.132 105.678 182.737 105.23C183.331 104.782 183.946 104.088 184.585 103.18C185.221 102.256 185.847 100.999 186.486 99.3663C187.112 97.7504 187.749 95.7146 188.399 93.259C189.046 90.8199 189.683 87.846 190.309 84.3514C190.948 80.8568 191.574 76.7571 192.201 72.0781C192.816 67.3851 193.421 61.9861 194.015 55.9069H214.238V112.477H209.053V62.1432H199.2Z" fill="#FBFAFF"/>
<path d="M136.987 112.477L154.196 55.9071H158.67L175.944 112.477H170.337L165.368 95.4968H147.521L142.529 112.477H136.987ZM156.4 64.6577C154.499 71.7031 152.685 78.113 150.967 83.8755L149.335 89.2604H163.498L161.866 83.8591C160.127 77.998 158.355 71.6023 156.531 64.6577H156.4Z" fill="#FBFAFF"/>
<path d="M102.018 112.477V55.9071H107.205V83.8591H107.268L126.714 55.9071H131.899L112.153 84.0631L133.065 112.477H127.88L107.268 84.7832H107.205V112.477H102.018Z" fill="#FBFAFF"/>
<path d="M84.3236 60.9303C81.946 60.9303 79.7327 61.4369 77.6696 62.4337C75.6065 63.4281 73.8133 64.9315 72.29 66.9086C70.7762 68.9021 69.5768 71.3695 68.7037 74.3152C67.8282 77.261 67.3846 80.6969 67.3846 84.6113C67.3846 88.5093 67.7953 91.8726 68.6051 94.7456C69.4148 97.6046 70.572 99.9734 72.0624 101.85C73.5645 103.726 75.3577 105.112 77.463 106.008C79.5707 106.918 81.9155 107.366 84.4973 107.366C85.2084 107.366 85.9548 107.321 86.7434 107.221C87.5321 107.134 88.3324 106.991 89.1304 106.817C89.9308 106.644 90.7077 106.442 91.4752 106.21C92.2309 105.98 92.9116 105.734 93.5054 105.459V111.496C92.2638 112.146 90.8156 112.636 89.175 112.997C87.5203 113.344 85.8351 113.515 84.1076 113.515C80.5847 113.515 77.4536 112.866 74.731 111.552C72.0084 110.239 69.7293 108.349 67.8822 105.893C66.035 103.437 64.6409 100.45 63.6903 96.9127C62.7397 93.3595 62.2632 89.3466 62.2632 84.8693C62.2632 80.4671 62.7608 76.4237 63.7654 72.7274C64.7699 69.0311 66.2181 65.8555 68.1075 63.1982C69.9993 60.555 72.29 58.4771 74.9798 57.0042C77.6789 55.5172 80.7044 54.7808 84.0537 54.7808C84.9385 54.7808 85.8257 54.823 86.6894 54.9238C87.5532 55.0247 88.3864 55.1701 89.175 55.3437C89.9636 55.5313 90.6983 55.7471 91.3789 55.9933C92.0479 56.2537 92.6323 56.514 93.1181 56.7861V62.8371C91.8319 62.3023 90.4284 61.8403 88.9145 61.4791C87.3912 61.1179 85.868 60.9303 84.3236 60.9303Z" fill="#FBFAFF"/>
<path d="M104.274 38.1545C104.166 38.2014 104.065 38.2131 103.967 38.192C103.868 38.1709 103.805 38.1217 103.772 38.0489C103.737 37.9739 103.746 37.8941 103.798 37.8097C103.85 37.7276 103.927 37.662 104.035 37.6127L107.035 36.2876C107.14 36.2407 107.241 36.2266 107.337 36.2454C107.434 36.2641 107.499 36.311 107.532 36.3861C107.565 36.4588 107.556 36.5409 107.506 36.6277C107.457 36.7144 107.38 36.7825 107.272 36.8294L104.274 38.1545ZM114.827 36.1422C114.759 36.2477 114.653 36.3298 114.51 36.3837C114.369 36.44 114.235 36.4494 114.113 36.4166C113.989 36.3837 113.909 36.3228 113.874 36.2289L111.731 30.6916C111.679 30.5579 111.703 30.4148 111.804 30.2624C111.902 30.1099 112.048 29.9973 112.24 29.9223L117.179 28.0132C117.371 27.9405 117.557 27.9264 117.733 27.9709C117.909 28.0179 118.021 28.107 118.075 28.2407L120.216 33.778C120.253 33.8719 120.237 33.9704 120.167 34.0783C120.098 34.1861 119.993 34.2659 119.85 34.3222C119.709 34.3761 119.575 34.3878 119.453 34.355C119.329 34.3222 119.249 34.2589 119.214 34.165L117.132 28.7871C117.115 28.7402 117.073 28.7285 117.005 28.7543L112.869 30.3538C112.801 30.3796 112.778 30.4148 112.794 30.4617L114.876 35.842C114.911 35.9334 114.895 36.0343 114.827 36.1422ZM123.049 33.241C122.903 33.2879 122.767 33.2902 122.643 33.2503C122.518 33.2105 122.438 33.1401 122.408 33.0393L120.584 27.2228C120.551 27.1219 120.575 27.0234 120.652 26.9273C120.732 26.8311 120.838 26.7607 120.976 26.7185C121.112 26.674 121.239 26.6716 121.359 26.7045C121.476 26.7396 121.554 26.8077 121.584 26.9109L123.154 31.9205C123.157 31.9276 123.161 31.9276 123.171 31.9252C123.187 31.9205 123.197 31.9158 123.194 31.9088L125.872 25.5388C125.985 25.2668 126.217 25.0768 126.567 24.9665C126.713 24.922 126.849 24.9196 126.973 24.9572C127.097 24.997 127.175 25.0674 127.208 25.1706L129.031 30.9871C129.062 31.0879 129.041 31.1864 128.961 31.2826C128.884 31.3787 128.778 31.4491 128.64 31.4913C128.503 31.5335 128.377 31.5382 128.257 31.503C128.137 31.4679 128.062 31.3999 128.032 31.299L126.459 26.287C126.459 26.2823 126.452 26.2799 126.445 26.2823C126.426 26.287 126.419 26.294 126.422 26.2987L123.743 32.671C123.631 32.9408 123.398 33.1331 123.049 33.241ZM132.078 30.5133C131.881 30.5673 131.693 30.5626 131.519 30.4992C131.343 30.4359 131.238 30.3351 131.2 30.1944L129.661 24.4623C129.635 24.3661 129.663 24.2676 129.743 24.1691C129.822 24.0706 129.937 24.0003 130.083 23.9604C130.231 23.9205 130.365 23.9252 130.482 23.9698C130.602 24.0167 130.674 24.087 130.7 24.1832L132.195 29.7534C132.207 29.8027 132.254 29.8167 132.331 29.7956L136.601 28.6511C136.681 28.63 136.714 28.5948 136.699 28.5479L135.204 22.9777C135.179 22.8815 135.207 22.7807 135.291 22.6822C135.376 22.5813 135.488 22.5133 135.627 22.4758C135.765 22.4383 135.897 22.4429 136.019 22.4875C136.143 22.5321 136.218 22.6024 136.242 22.6986L137.739 28.2688C137.751 28.3181 137.796 28.3298 137.873 28.3087L138.237 28.2125C138.436 28.1586 138.622 28.1633 138.791 28.2289C138.962 28.2923 139.065 28.3955 139.103 28.5338L139.427 29.7394C139.45 29.8285 139.427 29.9199 139.354 30.0114C139.281 30.1005 139.18 30.1639 139.049 30.199C138.92 30.2342 138.798 30.2295 138.685 30.1897C138.572 30.1474 138.504 30.0818 138.479 29.9926L138.199 28.9513C138.187 28.902 138.141 28.888 138.063 28.9091L132.078 30.5133ZM141.595 28.1328C141.394 28.1726 141.208 28.1586 141.037 28.0835C140.868 28.0085 140.767 27.9029 140.739 27.7599L139.558 21.9434C139.537 21.8449 139.572 21.7511 139.657 21.6549C139.744 21.5611 139.861 21.5001 140.011 21.4696C140.159 21.4391 140.293 21.4509 140.408 21.5048C140.525 21.5564 140.591 21.6315 140.612 21.73L141.76 27.3823C141.769 27.4315 141.814 27.4479 141.894 27.4315L146.226 26.5544C146.304 26.5379 146.339 26.5051 146.33 26.4559L145.182 20.8035C145.163 20.705 145.198 20.6089 145.287 20.5151C145.379 20.4189 145.494 20.3579 145.635 20.3298C145.776 20.3016 145.905 20.3134 146.027 20.365C146.146 20.4166 146.217 20.4916 146.236 20.5901L147.383 26.2424C147.393 26.2917 147.437 26.3081 147.517 26.2917L147.886 26.2166C148.088 26.1768 148.273 26.1932 148.437 26.2682C148.604 26.3433 148.7 26.4512 148.731 26.5919L148.977 27.8138C148.996 27.9053 148.965 27.9944 148.888 28.0812C148.81 28.168 148.705 28.2219 148.573 28.25C148.442 28.2758 148.32 28.2665 148.21 28.2172C148.099 28.1703 148.036 28.0999 148.017 28.0085L147.801 26.9507C147.792 26.9015 147.747 26.885 147.667 26.9015L141.595 28.1328ZM151.594 23.5218C151.587 23.5406 151.594 23.557 151.615 23.5711C151.634 23.5828 151.657 23.5875 151.686 23.5828L154.81 23.1207C154.835 23.1161 154.854 23.1043 154.866 23.0879C154.878 23.0691 154.88 23.0527 154.878 23.034L152.744 19.8232C152.742 19.8185 152.737 19.8162 152.728 19.8162C152.711 19.8185 152.702 19.8232 152.704 19.8302L151.594 23.5218ZM150.193 26.43C150.059 26.4512 149.949 26.4277 149.857 26.362C149.766 26.2964 149.735 26.2166 149.766 26.1251L151.904 19.6543C151.949 19.5277 152.038 19.4174 152.174 19.326C152.31 19.2322 152.465 19.1735 152.643 19.1477C152.819 19.1219 152.986 19.1313 153.143 19.1829C153.3 19.2322 153.418 19.3096 153.498 19.4174L157.41 24.9806C157.467 25.0674 157.462 25.1542 157.394 25.2433C157.326 25.3324 157.225 25.3864 157.093 25.4075C156.915 25.4333 156.753 25.4216 156.605 25.37C156.457 25.3184 156.347 25.2433 156.279 25.1378L155.347 23.7235C155.314 23.6766 155.256 23.6602 155.176 23.6719L151.496 24.2184C151.423 24.2301 151.378 24.2606 151.359 24.3145L150.857 25.9633C150.82 26.0829 150.742 26.1838 150.622 26.2682C150.505 26.3526 150.362 26.4066 150.193 26.43ZM167.655 23.5828C167.639 23.5945 167.639 23.6109 167.653 23.625C167.667 23.6391 167.688 23.6461 167.714 23.6438L171.979 23.3506C172.049 23.3459 172.084 23.3178 172.08 23.2685L171.706 17.8414C171.702 17.7921 171.664 17.7687 171.594 17.7757L168.336 17.9985C168.256 18.0055 168.216 18.0313 168.219 18.0829C168.322 19.5535 168.373 20.5714 168.376 21.1366C168.378 21.6995 168.334 22.1474 168.24 22.4805C168.146 22.8112 167.951 23.1794 167.655 23.5828ZM166.58 25.7522C166.486 25.8273 166.371 25.8695 166.238 25.8789C166.104 25.8883 165.989 25.8625 165.89 25.7991C165.792 25.7382 165.738 25.6608 165.731 25.567L165.641 24.2559C165.632 24.1316 165.691 24.019 165.813 23.9158C165.937 23.8126 166.087 23.7563 166.266 23.7446C166.339 23.7376 166.385 23.7188 166.411 23.686C166.768 23.2732 167.005 22.905 167.122 22.5837C167.24 22.2624 167.301 21.8027 167.31 21.2046C167.317 20.6042 167.27 19.5628 167.169 18.0806L167.162 17.9868C167.153 17.8414 167.216 17.7124 167.357 17.5974C167.498 17.4802 167.672 17.4145 167.876 17.4004L171.967 17.119C172.171 17.1049 172.354 17.1471 172.514 17.2409C172.673 17.3371 172.758 17.4567 172.767 17.5998L173.152 23.1935C173.157 23.2451 173.199 23.2662 173.279 23.2615L173.521 23.2427C173.725 23.2286 173.906 23.2708 174.06 23.367C174.215 23.4632 174.298 23.5828 174.307 23.7259L174.394 24.9689C174.401 25.0627 174.359 25.1471 174.269 25.2222C174.18 25.2972 174.07 25.3395 173.934 25.3488C173.8 25.3582 173.683 25.3324 173.579 25.2691C173.476 25.2081 173.422 25.1307 173.415 25.0369L173.34 23.9604C173.338 23.9111 173.3 23.89 173.227 23.8947L166.752 24.3403C166.672 24.345 166.632 24.3732 166.637 24.4224L166.709 25.4989C166.716 25.5928 166.674 25.6772 166.58 25.7522ZM177.537 21.0592C177.527 21.0803 177.532 21.0967 177.551 21.1108C177.569 21.1272 177.593 21.1342 177.619 21.1342L180.776 21.0662C180.804 21.0662 180.822 21.0568 180.837 21.0404C180.848 21.0263 180.855 21.0076 180.855 20.9888L179.142 17.5365C179.142 17.5318 179.137 17.5271 179.128 17.5271C179.111 17.5294 179.102 17.5318 179.102 17.5388L177.537 21.0592ZM175.779 23.7704C175.645 23.7728 175.537 23.7376 175.455 23.6602C175.372 23.5851 175.351 23.5007 175.396 23.4139L178.33 17.2644C178.389 17.1424 178.492 17.0463 178.64 16.9712C178.785 16.8962 178.947 16.8563 179.128 16.8516C179.306 16.8493 179.471 16.8821 179.621 16.9501C179.769 17.0181 179.877 17.1119 179.942 17.2292L183.123 23.2404C183.167 23.3318 183.153 23.4186 183.073 23.4983C182.994 23.5781 182.888 23.6203 182.754 23.6227C182.573 23.625 182.414 23.5945 182.273 23.5242C182.134 23.4561 182.036 23.3647 181.98 23.2544L181.233 21.7323C181.207 21.6831 181.151 21.6596 181.071 21.6596L177.349 21.7393C177.278 21.7417 177.229 21.7675 177.203 21.8167L176.497 23.3905C176.445 23.503 176.356 23.5945 176.227 23.6625C176.1 23.7305 175.95 23.7681 175.779 23.7704ZM193.171 20.372L193.018 23.1348C193.016 23.1911 193.053 23.2286 193.133 23.2451C193.532 23.3225 193.964 23.3764 194.431 23.4022C196.327 23.5054 197.306 23.0152 197.365 21.9293C197.419 20.9443 196.473 20.3954 194.522 20.2876C194.138 20.2664 193.724 20.2665 193.283 20.2852C193.21 20.2946 193.173 20.3227 193.171 20.372ZM192.656 23.8384C192.434 23.8079 192.255 23.7305 192.124 23.6062C191.99 23.4843 191.929 23.3436 191.938 23.1888L192.255 17.4778C192.262 17.3324 192.344 17.2128 192.497 17.1143C192.649 17.0158 192.83 16.9736 193.034 16.9853L197.611 17.2386C197.738 17.2456 197.841 17.2832 197.921 17.3488C198.003 17.4168 198.041 17.4896 198.038 17.5716C198.034 17.6537 197.987 17.7194 197.898 17.7757C197.811 17.8296 197.703 17.8531 197.578 17.846L193.431 17.6162C193.361 17.6139 193.323 17.6397 193.318 17.6959L193.213 19.6051C193.21 19.6684 193.248 19.6942 193.33 19.6871C193.788 19.6684 194.224 19.6707 194.635 19.6942C195.914 19.7645 196.867 19.9944 197.492 20.3861C198.116 20.7777 198.409 21.3078 198.372 21.9762C198.29 23.4749 196.949 24.1504 194.356 24.0073C193.809 23.9768 193.243 23.9205 192.656 23.8384ZM207.232 18.0923C207.375 18.1064 207.481 18.158 207.549 18.2494C207.615 18.3409 207.615 18.4277 207.544 18.5074L204.141 22.6212C203.559 23.3178 202.948 23.7939 202.312 24.0472C201.674 24.3028 200.846 24.3966 199.827 24.3263C199.71 24.3216 199.611 24.2864 199.526 24.2184C199.444 24.1504 199.407 24.073 199.414 23.9838C199.423 23.9041 199.472 23.8361 199.564 23.7821C199.653 23.7282 199.761 23.7047 199.888 23.7118C200.62 23.7587 201.202 23.7047 201.632 23.5476C202.061 23.3928 202.47 23.0879 202.857 22.6353C202.887 22.5884 202.892 22.5391 202.871 22.4875L200.186 17.7945C200.123 17.7006 200.137 17.6139 200.226 17.5341C200.313 17.4567 200.43 17.4239 200.571 17.438C200.759 17.4567 200.932 17.5083 201.09 17.5974C201.247 17.6842 201.36 17.7921 201.43 17.9164L203.538 21.8941C203.538 21.8988 203.54 21.9035 203.549 21.9035C203.568 21.9059 203.575 21.9035 203.578 21.8965L206.34 18.3902C206.525 18.1509 206.824 18.0501 207.232 18.0923ZM210.415 19.2275L210.025 21.9575C210.018 22.0067 210.053 22.0442 210.131 22.0677C210.551 22.1709 211.027 22.2624 211.56 22.3374C212.438 22.4617 213.128 22.4242 213.632 22.2248C214.135 22.0255 214.423 21.6784 214.494 21.1811C214.564 20.6863 214.388 20.2782 213.968 19.9569C213.548 19.6356 212.891 19.4104 211.994 19.2838C211.515 19.2134 211.032 19.1712 210.546 19.1524C210.466 19.1524 210.422 19.1782 210.415 19.2275ZM209.408 25.1941C209.295 25.255 209.164 25.2738 209.013 25.2527C208.863 25.2292 208.741 25.1753 208.65 25.0862C208.558 24.997 208.518 24.9032 208.532 24.8047L209.363 18.9742C209.384 18.8264 209.476 18.7044 209.633 18.6106C209.793 18.5168 209.978 18.4746 210.194 18.4863C210.884 18.5332 211.539 18.6012 212.161 18.6904C213.367 18.8616 214.257 19.1712 214.832 19.6144C215.407 20.0601 215.646 20.6136 215.552 21.275C215.449 21.995 215.057 22.4945 214.374 22.776C213.691 23.0574 212.752 23.1137 211.555 22.9425C211.074 22.8745 210.572 22.7877 210.044 22.6798C209.964 22.6681 209.922 22.6845 209.915 22.7291L209.598 24.9572C209.584 25.0557 209.52 25.1354 209.408 25.1941ZM217.4 26.4934C217.275 26.5473 217.137 26.559 216.989 26.5286C216.839 26.4981 216.719 26.4324 216.63 26.3339C216.541 26.2377 216.505 26.1345 216.526 26.0313L217.716 20.236C217.745 20.0952 217.843 19.9874 218.01 19.9123C218.174 19.8373 218.36 19.8208 218.561 19.863L222.84 20.7379C222.962 20.7637 223.063 20.8176 223.143 20.9021C223.223 20.9841 223.253 21.0686 223.234 21.1553C223.218 21.2398 223.157 21.3054 223.051 21.3524C222.946 21.3969 222.831 21.4063 222.709 21.3828L218.904 20.6018C218.824 20.5854 218.78 20.6065 218.768 20.6605L217.62 26.2541C217.599 26.3597 217.526 26.4394 217.4 26.4934ZM224.497 28.168C224.298 28.1187 224.136 28.0225 224.014 27.8842C223.892 27.7434 223.847 27.6051 223.882 27.4644L225.265 21.8566C225.3 21.7159 225.403 21.615 225.577 21.547C225.751 21.4814 225.936 21.472 226.138 21.5212L230.522 22.6001C230.644 22.6306 230.74 22.6869 230.813 22.7689C230.884 22.851 230.912 22.9308 230.891 23.0105C230.872 23.0903 230.811 23.1489 230.708 23.1935C230.607 23.2357 230.494 23.2404 230.372 23.2099L226.405 22.2342C226.326 22.2155 226.281 22.2295 226.269 22.2788L225.769 24.2981C225.758 24.3474 225.793 24.3802 225.87 24.4013L229.602 25.3207C229.724 25.3488 229.816 25.4028 229.881 25.4802C229.945 25.5576 229.968 25.635 229.947 25.7147C229.928 25.7921 229.872 25.8507 229.78 25.8906C229.687 25.9281 229.579 25.9328 229.459 25.9023L225.727 24.983C225.647 24.9642 225.603 24.9806 225.589 25.0369L224.967 27.5582C224.955 27.6074 224.988 27.6403 225.065 27.659L229.034 28.637C229.154 28.6675 229.252 28.7238 229.323 28.8106C229.393 28.895 229.419 28.9771 229.4 29.0568C229.381 29.1342 229.32 29.1929 229.217 29.2327C229.116 29.2726 229.004 29.2773 228.882 29.2468L224.497 28.168ZM234.28 24.4154L233.447 27.0445C233.43 27.0914 233.461 27.1337 233.533 27.1688C233.93 27.3424 234.385 27.5089 234.897 27.6707C235.742 27.9405 236.43 28.0155 236.96 27.9029C237.491 27.788 237.831 27.4925 237.981 27.0164C238.134 26.5403 238.028 26.1064 237.667 25.7218C237.305 25.3348 236.693 25.0041 235.831 24.7297C235.369 24.5842 234.902 24.4623 234.425 24.3638C234.343 24.3521 234.296 24.3685 234.28 24.4154ZM232.304 30.1334C232.182 30.1756 232.048 30.1709 231.905 30.1263C231.759 30.0794 231.649 30.0067 231.574 29.9035C231.496 29.8003 231.475 29.7018 231.506 29.6057L233.287 23.9932C233.332 23.8502 233.442 23.7446 233.613 23.6789C233.785 23.6109 233.975 23.6015 234.186 23.6485C234.86 23.8103 235.493 23.9838 236.092 24.1738C237.254 24.542 238.08 24.9923 238.575 25.5271C239.068 26.0595 239.213 26.6458 239.012 27.2838C238.791 27.9756 238.322 28.4025 237.601 28.569C236.883 28.7332 235.946 28.6323 234.792 28.2665C234.331 28.121 233.848 27.9522 233.346 27.7599C233.268 27.7364 233.224 27.7434 233.21 27.7857L232.529 29.9317C232.498 30.0255 232.423 30.0935 232.304 30.1334ZM247.424 35.4362C247.299 35.4691 247.168 35.4573 247.025 35.4034C246.881 35.3494 246.776 35.2697 246.705 35.1618C246.637 35.0563 246.621 34.9554 246.656 34.8616L248.829 29.1671C248.865 29.0733 248.944 29.0099 249.067 28.9771C249.191 28.9443 249.322 28.9537 249.466 29.0076C249.606 29.0615 249.712 29.1436 249.782 29.2492C249.853 29.3571 249.869 29.4556 249.834 29.5494L247.661 35.2439C247.625 35.3377 247.546 35.401 247.424 35.4362ZM241.328 29.5212L240.342 32.1058C240.324 32.1574 240.352 32.2067 240.432 32.2489C240.788 32.4459 241.185 32.6265 241.619 32.793C243.396 33.4685 244.476 33.2996 244.863 32.2817C245.215 31.36 244.476 30.5485 242.643 29.8496C242.29 29.7159 241.901 29.5916 241.476 29.4767C241.396 29.4603 241.347 29.4743 241.328 29.5212ZM239.798 32.671C239.594 32.5725 239.446 32.4435 239.354 32.2864C239.26 32.1269 239.242 31.9745 239.298 31.8267L241.394 26.3339C241.429 26.2401 241.509 26.1768 241.633 26.1439C241.755 26.1111 241.887 26.1205 242.03 26.1744C242.173 26.2284 242.279 26.3104 242.349 26.416C242.417 26.5239 242.434 26.6247 242.398 26.7162L241.603 28.8012C241.582 28.8598 241.61 28.8974 241.69 28.9161C242.133 29.0381 242.551 29.1741 242.943 29.3242C244.142 29.7792 244.978 30.2882 245.452 30.851C245.928 31.4139 246.048 32.0073 245.809 32.6335C245.274 34.0337 243.793 34.2729 241.366 33.3488C240.854 33.1542 240.331 32.9267 239.798 32.671ZM254.261 35.9499C254.155 35.9006 254.078 35.8326 254.028 35.7435C253.981 35.6567 253.974 35.5769 254.007 35.5019C254.042 35.4292 254.108 35.3823 254.204 35.3659C254.301 35.3471 254.401 35.3635 254.507 35.4128L257.486 36.7848C257.591 36.8317 257.669 36.8997 257.72 36.9841C257.77 37.0686 257.777 37.1483 257.741 37.2234C257.709 37.2961 257.643 37.343 257.544 37.3641C257.446 37.3829 257.345 37.3688 257.239 37.3195L254.261 35.9499Z" fill="white"/>
<path d="M138.184 143.954C138.069 143.928 137.977 143.879 137.909 143.801C137.843 143.726 137.818 143.649 137.834 143.569C137.853 143.489 137.907 143.431 138.001 143.393C138.092 143.358 138.195 143.351 138.31 143.377L141.559 144.097C141.674 144.123 141.765 144.172 141.833 144.245C141.901 144.317 141.925 144.392 141.908 144.472C141.89 144.552 141.836 144.611 141.742 144.65C141.65 144.693 141.545 144.7 141.43 144.674L138.184 143.954ZM148.771 147.812C148.75 147.821 148.746 147.835 148.757 147.854C148.769 147.871 148.788 147.882 148.814 147.887L153.099 148.551C153.17 148.56 153.21 148.541 153.219 148.492L154.052 143.119C154.059 143.07 154.029 143.039 153.956 143.027L150.682 142.521C150.602 142.507 150.558 142.526 150.548 142.575C150.323 144.034 150.149 145.037 150.027 145.589C149.905 146.137 149.76 146.564 149.593 146.869C149.426 147.172 149.152 147.486 148.771 147.812ZM147.225 149.688C147.114 149.742 146.992 149.759 146.859 149.737C146.722 149.716 146.614 149.665 146.53 149.583C146.445 149.498 146.41 149.412 146.427 149.318L146.626 148.021C146.645 147.899 146.727 147.8 146.873 147.728C147.018 147.655 147.18 147.634 147.358 147.659C147.431 147.671 147.483 147.664 147.516 147.636C147.959 147.315 148.276 147.01 148.464 146.721C148.652 146.433 148.816 145.999 148.957 145.417C149.098 144.836 149.281 143.808 149.511 142.338L149.525 142.246C149.546 142.103 149.64 141.991 149.804 141.909C149.968 141.827 150.154 141.803 150.36 141.834L154.47 142.472C154.677 142.504 154.848 142.584 154.984 142.713C155.12 142.842 155.179 142.976 155.155 143.119L154.296 148.659C154.287 148.71 154.325 148.741 154.404 148.752L154.649 148.79C154.855 148.823 155.024 148.903 155.155 149.029C155.287 149.158 155.343 149.292 155.32 149.435L155.13 150.669C155.116 150.76 155.055 150.833 154.951 150.887C154.846 150.941 154.726 150.957 154.592 150.936C154.456 150.915 154.346 150.863 154.257 150.779C154.167 150.697 154.132 150.608 154.146 150.516L154.311 149.449C154.32 149.4 154.287 149.369 154.214 149.36L147.708 148.349C147.626 148.337 147.581 148.356 147.574 148.405L147.41 149.47C147.394 149.564 147.333 149.637 147.225 149.688ZM163.774 144.915C163.286 144.367 162.528 144.029 161.5 143.907C160.469 143.785 159.655 143.933 159.049 144.35C158.446 144.77 158.087 145.45 157.974 146.395C157.862 147.338 158.049 148.084 158.538 148.633C159.026 149.184 159.784 149.519 160.812 149.641C161.842 149.766 162.657 149.618 163.262 149.198C163.866 148.781 164.225 148.098 164.337 147.155C164.45 146.212 164.262 145.464 163.774 144.915ZM163.995 149.726C163.159 150.246 162.075 150.427 160.737 150.265C159.401 150.106 158.39 149.674 157.7 148.973C157.01 148.269 156.733 147.366 156.864 146.262C156.996 145.157 157.481 144.343 158.317 143.825C159.153 143.304 160.237 143.124 161.575 143.283C162.91 143.443 163.922 143.874 164.612 144.575C165.3 145.279 165.579 146.182 165.447 147.287C165.316 148.391 164.83 149.205 163.995 149.726ZM170.454 151.095C169.149 150.997 168.126 150.612 167.384 149.939C166.64 149.266 166.311 148.375 166.396 147.263C166.478 146.161 166.921 145.328 167.724 144.77C168.527 144.209 169.599 143.98 170.942 144.08C171.649 144.132 172.275 144.228 172.82 144.362C172.956 144.397 173.061 144.458 173.141 144.547C173.221 144.634 173.259 144.728 173.249 144.826C173.245 144.908 173.193 144.969 173.094 145.007C172.993 145.047 172.888 145.051 172.77 145.016C172.245 144.864 171.651 144.763 170.989 144.714C169.966 144.636 169.144 144.829 168.525 145.291C167.907 145.75 167.565 146.438 167.497 147.348C167.428 148.251 167.675 148.98 168.241 149.533C168.804 150.087 169.59 150.401 170.597 150.476C171.268 150.528 171.879 150.516 172.43 150.446C172.55 150.429 172.655 150.448 172.747 150.502C172.838 150.556 172.883 150.624 172.876 150.704C172.869 150.805 172.82 150.889 172.726 150.962C172.634 151.032 172.519 151.077 172.383 151.091C171.768 151.145 171.125 151.147 170.454 151.095ZM175.34 145.061C175.214 145.059 175.103 145.026 175.014 144.96C174.925 144.897 174.88 144.822 174.883 144.732C174.885 144.646 174.932 144.573 175.024 144.512C175.115 144.451 175.225 144.421 175.352 144.425L181.434 144.55C181.56 144.552 181.668 144.585 181.757 144.648C181.847 144.714 181.891 144.789 181.889 144.878C181.887 144.965 181.842 145.037 181.748 145.098C181.657 145.159 181.546 145.19 181.419 145.185L179.047 145.138C178.967 145.136 178.925 145.159 178.925 145.211L178.805 150.966C178.802 151.067 178.748 151.152 178.643 151.227C178.537 151.299 178.408 151.332 178.253 151.33C178.098 151.328 177.969 151.288 177.866 151.21C177.763 151.133 177.713 151.044 177.716 150.943L177.833 145.187C177.833 145.138 177.798 145.112 177.725 145.11L175.34 145.061ZM185.245 148.745C185.236 148.764 185.241 148.781 185.259 148.797C185.278 148.811 185.302 148.818 185.327 148.818L188.531 148.769C188.559 148.767 188.58 148.759 188.592 148.743C188.606 148.727 188.613 148.71 188.613 148.691L186.895 145.23C186.895 145.223 186.891 145.22 186.881 145.22C186.862 145.22 186.853 145.225 186.853 145.23L185.245 148.745ZM183.447 151.445C183.311 151.447 183.201 151.41 183.116 151.332C183.034 151.257 183.015 151.175 183.06 151.086L186.071 144.953C186.135 144.833 186.238 144.735 186.388 144.662C186.536 144.587 186.703 144.55 186.883 144.545C187.067 144.543 187.231 144.575 187.383 144.646C187.534 144.716 187.642 144.81 187.707 144.927L190.897 150.955C190.944 151.046 190.928 151.133 190.848 151.213C190.766 151.292 190.658 151.332 190.521 151.335C190.341 151.337 190.179 151.304 190.036 151.234C189.895 151.166 189.794 151.074 189.74 150.962L188.991 149.437C188.963 149.386 188.909 149.362 188.827 149.365L185.05 149.423C184.978 149.423 184.928 149.449 184.903 149.501L184.177 151.067C184.123 151.182 184.032 151.271 183.903 151.339C183.771 151.407 183.619 151.443 183.447 151.445ZM193.322 147.892L193.488 150.502C193.491 150.551 193.528 150.582 193.603 150.589C194.059 150.61 194.505 150.608 194.941 150.579C196.828 150.458 197.739 149.892 197.673 148.881C197.645 148.419 197.359 148.098 196.812 147.913C196.267 147.728 195.401 147.674 194.213 147.751L193.425 147.8C193.352 147.805 193.317 147.835 193.322 147.892ZM193.138 145.037L193.272 147.134C193.275 147.183 193.315 147.207 193.385 147.202L194.176 147.151C196.152 147.024 197.117 146.562 197.065 145.764C197.039 145.377 196.819 145.103 196.396 144.941C195.978 144.782 195.324 144.73 194.434 144.786C194.044 144.81 193.645 144.861 193.242 144.937C193.169 144.953 193.136 144.988 193.138 145.037ZM193.207 151.234C192.988 151.229 192.803 151.173 192.65 151.067C192.498 150.962 192.416 150.83 192.406 150.676L192.042 145.005C192.033 144.847 192.094 144.709 192.228 144.582C192.362 144.458 192.538 144.381 192.754 144.348C193.249 144.273 193.796 144.217 194.394 144.177C196.791 144.024 198.023 144.5 198.093 145.605C198.117 145.985 197.955 146.325 197.605 146.628C197.255 146.928 196.769 147.146 196.15 147.28C196.143 147.28 196.138 147.282 196.138 147.289C196.138 147.296 196.147 147.298 196.166 147.296C196.969 147.333 197.593 147.488 198.039 147.765C198.485 148.039 198.725 148.412 198.753 148.879C198.842 150.251 197.584 151.02 194.979 151.187C194.336 151.229 193.744 151.243 193.207 151.234ZM201.499 150.535C201.403 150.619 201.276 150.671 201.123 150.687C200.971 150.704 200.837 150.678 200.724 150.615C200.614 150.551 200.553 150.469 200.541 150.371L199.903 144.308C199.893 144.209 199.936 144.116 200.032 144.031C200.128 143.944 200.253 143.895 200.407 143.879C200.56 143.862 200.694 143.886 200.806 143.949C200.917 144.015 200.978 144.095 200.99 144.195L201.266 146.843C201.269 146.85 201.274 146.853 201.283 146.85L201.309 146.848L204.7 143.759C204.975 143.508 205.329 143.363 205.764 143.316C205.89 143.302 205.982 143.332 206.04 143.405C206.097 143.478 206.085 143.55 206.001 143.621L202.344 146.918C202.294 146.961 202.294 147 202.344 147.031L206.796 149.752C206.885 149.806 206.907 149.876 206.86 149.96C206.813 150.047 206.733 150.096 206.616 150.11C206.172 150.157 205.799 150.082 205.494 149.888L201.358 147.315C201.349 147.31 201.339 147.308 201.33 147.308C201.32 147.31 201.316 147.317 201.318 147.329L201.626 150.256C201.637 150.357 201.595 150.448 201.499 150.535ZM209.702 147.01C209.695 147.031 209.702 147.047 209.721 147.059C209.742 147.073 209.765 147.078 209.793 147.073L212.967 146.642C212.995 146.639 213.014 146.628 213.025 146.611C213.037 146.595 213.042 146.576 213.039 146.557L210.92 143.325C210.92 143.318 210.913 143.316 210.906 143.316C210.887 143.318 210.878 143.323 210.88 143.33L209.702 147.01ZM208.237 149.906C208.104 149.925 207.989 149.902 207.897 149.834C207.805 149.768 207.777 149.688 207.81 149.594L210.07 143.147C210.117 143.02 210.211 142.912 210.35 142.821C210.488 142.73 210.648 142.671 210.829 142.645C211.007 142.622 211.178 142.636 211.335 142.685C211.495 142.737 211.612 142.816 211.692 142.927L215.577 148.53C215.635 148.616 215.628 148.706 215.558 148.795C215.488 148.881 215.384 148.935 215.25 148.954C215.07 148.978 214.905 148.964 214.755 148.912C214.607 148.86 214.497 148.781 214.427 148.677L213.504 147.251C213.471 147.205 213.413 147.188 213.333 147.197L209.589 147.706C209.519 147.716 209.472 147.749 209.451 147.8L208.918 149.444C208.878 149.564 208.798 149.665 208.676 149.747C208.557 149.829 208.409 149.883 208.237 149.906ZM220.545 145.441C220.43 145.467 220.327 145.462 220.233 145.422C220.139 145.382 220.085 145.324 220.067 145.244C220.048 145.164 220.071 145.089 220.137 145.016C220.205 144.941 220.297 144.892 220.412 144.864L223.651 144.106C223.766 144.078 223.869 144.083 223.961 144.12C224.054 144.156 224.108 144.214 224.127 144.292C224.146 144.371 224.122 144.449 224.057 144.526C223.991 144.603 223.899 144.655 223.784 144.681L220.545 145.441Z" fill="#FBFAFF"/>
</svg>
