<svg width="32" height="32" viewBox="0 0 32 32" fill="none" xmlns="http://www.w3.org/2000/svg">
<path d="M16 0C7.16344 0 0 7.16344 0 16C0 24.8366 7.16344 32 16 32C24.8366 32 32 24.8366 32 16C32 7.16344 24.8366 0 16 0ZM24.3162 10.121L21.4744 23.6875C21.4401 23.8516 21.365 24.0044 21.2561 24.1319C21.1473 24.2594 21.0081 24.3575 20.8515 24.4172C20.6948 24.4769 20.5257 24.4963 20.3596 24.4735C20.1935 24.4508 20.0357 24.3867 19.9009 24.2871L15.7674 21.2332L13.2631 23.5958C13.2303 23.6267 13.1917 23.6508 13.1495 23.6666C13.1074 23.6824 13.0624 23.6897 13.0174 23.688C12.9724 23.6863 12.9281 23.6756 12.8873 23.6566C12.8464 23.6376 12.8097 23.6107 12.7794 23.5774L12.7256 23.5182L13.1607 19.3073L21.0034 12.1416C21.0422 12.1062 21.0663 12.0576 21.071 12.0053C21.0757 11.953 21.0607 11.9009 21.0288 11.8592C20.9969 11.8175 20.9506 11.7892 20.8989 11.78C20.8472 11.7707 20.794 11.7812 20.7496 11.8093L10.7197 18.1574L6.4 16.7067C6.28514 16.6681 6.18504 16.5949 6.11342 16.4972C6.0418 16.3995 6.00218 16.2819 5.99998 16.1608C5.99779 16.0397 6.03314 15.9208 6.10118 15.8205C6.16922 15.7203 6.26661 15.6435 6.38 15.6008L23.2812 9.234C23.4116 9.18494 23.5528 9.1718 23.69 9.19596C23.8272 9.22012 23.9553 9.28069 24.0611 9.37134C24.1669 9.462 24.2464 9.57939 24.2912 9.71127C24.3361 9.84314 24.3447 9.98465 24.3162 10.121Z" fill="#F28F50"/>
</svg>
